<svg width="245" height="55" viewBox="0 0 245 55" fill="none" xmlns="http://www.w3.org/2000/svg">
<g clip-path="url(#clip0)">
<path d="M120.906 36.2255C129.417 28.0928 129.417 14.9072 120.906 6.77452C112.395 -1.35815 98.5958 -1.35814 90.0849 6.77452C81.5739 14.9072 81.5739 28.0928 90.0849 36.2255C98.5958 44.3581 112.395 44.3581 120.906 36.2255Z" fill="#FCC24C"/>
<path d="M117.785 33.2436C124.573 26.7578 124.573 16.2422 117.785 9.75642C110.998 3.27062 99.9929 3.27062 93.2055 9.75642C86.418 16.2422 86.418 26.7578 93.2055 33.2436C99.9929 39.7293 110.998 39.7293 117.785 33.2436Z" fill="#F4EFED"/>
<path d="M105.8 9.08273C106.52 9.08273 107.09 9.62762 107.09 10.3158V10.9467C108.861 11.1474 110.362 11.6923 111.742 12.5239C112.222 12.7819 112.643 13.2121 112.643 13.9004C112.643 14.7895 111.892 15.4776 110.962 15.4776C110.662 15.4776 110.362 15.3915 110.062 15.2196C109.011 14.6175 107.991 14.1873 106.97 13.9579V19.4639C111.532 20.5537 113.483 22.3029 113.483 25.3715C113.483 28.526 110.902 30.6193 107.09 30.9635V32.6842C107.09 33.3724 106.52 33.9172 105.8 33.9172C105.08 33.9172 104.48 33.3724 104.48 32.6842V30.9062C102.229 30.6768 100.158 29.9026 98.3272 28.6694C97.8171 28.354 97.5167 27.8952 97.5167 27.2929C97.5167 26.4038 98.2371 25.7157 99.1673 25.7157C99.5275 25.7157 99.8877 25.8304 100.158 26.0311C101.568 27.0062 102.949 27.6658 104.599 27.9525V22.3029C100.218 21.2133 98.1768 19.6359 98.1768 16.3954C98.1768 13.327 100.728 11.2048 104.479 10.918V10.3158C104.48 9.62762 105.08 9.08273 105.8 9.08273ZM104.6 18.8617V13.7859C102.679 13.9579 101.719 14.9329 101.719 16.1949C101.719 17.3992 102.289 18.1446 104.6 18.8617ZM106.971 22.8478V28.0671C108.891 27.8662 109.942 26.9486 109.942 25.5721C109.942 24.3104 109.281 23.5361 106.971 22.8478Z" fill="#FCC24C"/>
<path d="M105.5 0.671875C105.206 0.671875 104.913 0.679098 104.621 0.690184C116.251 1.1311 125.539 10.2783 125.539 21.5C125.539 32.7217 116.251 41.8689 104.621 42.3098C104.913 42.3209 105.206 42.3281 105.5 42.3281C117.538 42.3281 127.297 33.003 127.297 21.5C127.297 9.997 117.538 0.671875 105.5 0.671875V0.671875Z" fill="#DEA42E"/>
<path d="M105.5 42.3281C105.794 42.3281 106.087 42.3209 106.379 42.3098C94.7485 41.8689 85.4609 32.7217 85.4609 21.5C85.4609 10.2783 94.7485 1.1311 106.379 0.690184C106.087 0.679098 105.794 0.671875 105.5 0.671875C93.462 0.671875 83.7031 9.997 83.7031 21.5C83.7031 33.003 93.462 42.3281 105.5 42.3281Z" fill="#FCE06A"/>
<path d="M105.5 42.6641C93.2872 42.6641 83.3516 33.17 83.3516 21.5C83.3516 9.83004 93.2872 0.335938 105.5 0.335938C117.713 0.335938 127.648 9.83004 127.648 21.5C127.648 33.17 117.713 42.6641 105.5 42.6641ZM105.5 1.00781C93.675 1.00781 84.0547 10.2006 84.0547 21.5C84.0547 32.7994 93.675 41.9922 105.5 41.9922C117.325 41.9922 126.945 32.7994 126.945 21.5C126.945 10.2006 117.325 1.00781 105.5 1.00781Z" fill="#690589"/>
<path d="M105.5 38.4464C95.7211 38.4464 87.7654 30.8443 87.7654 21.5C87.7654 12.1557 95.7211 4.55363 105.5 4.55363C115.279 4.55363 123.235 12.1557 123.235 21.5C123.235 30.8443 115.279 38.4464 105.5 38.4464V38.4464ZM105.5 5.22551C96.1089 5.22551 88.4686 12.5263 88.4686 21.5C88.4686 30.4737 96.1089 37.7745 105.5 37.7745C114.891 37.7745 122.531 30.4737 122.531 21.5C122.531 12.5263 114.891 5.22551 105.5 5.22551V5.22551Z" fill="#690589"/>
<path d="M90.4148 17.1852C90.3786 17.1852 90.3417 17.1798 90.3055 17.1684C90.1209 17.1108 90.0202 16.921 90.0806 16.7448C90.3201 16.045 90.6108 15.353 90.9446 14.6882C91.0286 14.5209 91.2383 14.4503 91.4136 14.5306C91.5887 14.6109 91.6625 14.8116 91.5785 14.9788C91.2579 15.6172 90.9787 16.2815 90.7488 16.9534C90.7005 17.0954 90.5626 17.1852 90.4148 17.1852V17.1852Z" fill="#690589"/>
<path d="M105.8 34.2532C104.878 34.2532 104.128 33.5494 104.128 32.6842V31.2047C101.972 30.936 99.9541 30.1761 98.1249 28.944C97.5013 28.5589 97.1655 27.9853 97.1655 27.2929C97.1655 26.2201 98.0449 25.3797 99.1677 25.3797C99.6041 25.3797 100.044 25.5205 100.374 25.7659C101.716 26.6936 102.931 27.2526 104.248 27.5408V22.5612C99.6911 21.379 97.8257 19.5808 97.8257 16.3954C97.8257 13.2594 100.288 11.0149 104.128 10.6124V10.3158C104.128 9.45058 104.878 8.7468 105.8 8.7468C106.721 8.7468 107.442 9.43597 107.442 10.3158V10.6521C109.056 10.8748 110.524 11.3942 111.923 12.2355C112.624 12.6149 112.994 13.1906 112.994 13.9004C112.994 14.9732 112.102 15.8137 110.962 15.8137C110.599 15.8137 110.235 15.7108 109.881 15.5079C108.978 14.9904 108.137 14.6239 107.322 14.3944V19.2032C111.883 20.344 113.835 22.1984 113.835 25.3717C113.835 28.5187 111.337 30.807 107.442 31.265V32.6842C107.442 33.564 106.721 34.2532 105.8 34.2532V34.2532ZM99.1677 26.0516C98.4271 26.0516 97.8686 26.5852 97.8686 27.2929C97.8686 27.7525 98.0873 28.1208 98.5185 28.3874C100.349 29.6201 102.363 30.3528 104.517 30.5723C104.696 30.5905 104.831 30.7346 104.831 30.9064V32.6844C104.831 33.179 105.266 33.5815 105.8 33.5815C106.327 33.5815 106.739 33.1874 106.739 32.6844V30.9637C106.739 30.7903 106.877 30.6455 107.058 30.6293C110.804 30.291 113.132 28.2764 113.132 25.3717C113.132 22.467 111.322 20.8498 106.886 19.7901C106.729 19.7526 106.619 19.6184 106.619 19.4642V13.9582C106.619 13.8556 106.668 13.7586 106.752 13.6948C106.837 13.6312 106.947 13.6076 107.051 13.6312C108.073 13.8608 109.117 14.2862 110.243 14.9319C110.49 15.0733 110.725 15.142 110.962 15.142C111.707 15.142 112.291 14.5966 112.291 13.9006C112.291 13.4387 112.049 13.074 111.57 12.817C111.565 12.8143 111.56 12.8113 111.555 12.8084C110.156 11.9652 108.682 11.4655 107.049 11.2804C106.872 11.2604 106.739 11.1172 106.739 10.9468V10.316C106.739 9.81289 106.327 9.41884 105.8 9.41884C105.266 9.41884 104.831 9.82129 104.831 10.316V10.918C104.831 11.093 104.691 11.2389 104.508 11.2529C100.876 11.5305 98.5289 13.5492 98.5289 16.3954C98.5289 19.3103 100.256 20.8755 104.689 21.9777C104.843 22.0162 104.952 22.1499 104.952 22.3029V27.9525C104.952 28.0521 104.905 28.1467 104.825 28.2105C104.745 28.2743 104.64 28.3009 104.537 28.2831C102.947 28.0068 101.533 27.3964 99.9522 26.3032C99.733 26.1406 99.4507 26.0516 99.1677 26.0516V26.0516ZM104.48 10.918H104.482H104.48ZM106.971 28.4032C106.884 28.4032 106.801 28.3729 106.736 28.3173C106.662 28.2537 106.619 28.1626 106.619 28.0672V22.8479C106.619 22.7411 106.672 22.6407 106.762 22.5773C106.852 22.5142 106.968 22.4954 107.075 22.5273C109.391 23.2171 110.293 24.0707 110.293 25.5724C110.293 27.152 109.096 28.1831 107.009 28.4013C106.996 28.4025 106.983 28.4032 106.971 28.4032ZM107.322 23.313V27.6794C108.307 27.5089 109.59 27.0105 109.59 25.5722C109.59 24.6351 109.205 23.95 107.322 23.313V23.313ZM104.6 19.1976C104.563 19.1976 104.527 19.1923 104.491 19.1812C102.214 18.4745 101.367 17.6651 101.367 16.1947C101.367 14.6563 102.563 13.6308 104.567 13.4513C104.665 13.4424 104.763 13.4736 104.837 13.5374C104.91 13.6011 104.951 13.6913 104.951 13.7859V18.8617C104.951 18.9692 104.897 19.0703 104.807 19.1335C104.746 19.1756 104.673 19.1976 104.6 19.1976V19.1976ZM104.248 14.168C102.858 14.3922 102.07 15.1178 102.07 16.1947C102.07 17.1346 102.421 17.7545 104.248 18.3911V14.168Z" fill="#690589"/>
</g>
<path d="M16.8223 23.332H11.0566V18.6738H20.0742L24.75 23.332V28.0781L22.4121 30.416L24.75 32.7539V37.3418L20.0742 42H11.0566V37.3418H16.8223V32.3672H11.0566V28.3066H16.8223V23.332ZM2.05664 18.6738H9.82617V42H2.05664V18.6738ZM40.4297 42V27.9902H29.373V25.6699L31.7109 23.332H43.3652L48.0234 27.9902V42H40.4297ZM39.1992 31.1367V34.3711H35.1914V37.6406H39.1992V39.6973L36.8789 42H30.9375L27.8086 38.9238V34.248L30.9375 31.1367H39.1992ZM51.5391 42V23.332H59.3789V42H51.5391ZM63.9844 27.9902H60.6445V25.9512L63.2461 23.332H67.5703L71.7715 27.5332V42H63.9844V27.9902ZM82.9863 42H79.875L75.2168 37.3418V27.9902L79.875 23.332H82.9863V42ZM84.2168 27.9902V23.332H90.7734L95.4316 27.9902V30.7852H87.6621V27.9902H84.2168ZM84.2168 42V37.6406H87.6621V35.3027H95.4316V37.3418L90.7734 42H84.2168ZM117.281 42V23.332H125.121V42H117.281ZM129.727 27.9902H126.387V25.9512L128.988 23.332H133.312L137.514 27.5332V42H129.727V27.9902ZM161.93 37.3418L157.271 42H152.068V37.6406H154.002V27.9902H152.068V23.332H157.271L161.93 27.9902V37.3418ZM148.816 37.6406H150.838V42H145.617L140.959 37.3418V27.9902L145.617 23.332H150.838V27.9902H148.816V37.6406ZM165.709 42V23.332H173.496V42H165.709ZM177.891 27.9902H174.727V25.793L177.17 23.332H183.182L185.678 25.8281V42H177.891V27.9902ZM190.072 27.9902H186.908V25.8281L189.299 23.332H194.045L197.842 27.1641V42H190.072V27.9902ZM201.393 23.332H209.18V42H201.393V23.332ZM201.393 16.0547H209.18V21.0117H201.393V16.0547ZM225.176 42V27.9902H214.119V25.6699L216.457 23.332H228.111L232.77 27.9902V42H225.176ZM223.945 31.1367V34.3711H219.938V37.6406H223.945V39.6973L221.625 42H215.684L212.555 38.9238V34.248L215.684 31.1367H223.945Z" fill="#EA907A"/>
<path d="M16.8223 23.332H17.8223V22.332H16.8223V23.332ZM11.0566 23.332H10.0566V24.332H11.0566V23.332ZM11.0566 18.6738V17.6738H10.0566V18.6738H11.0566ZM20.0742 18.6738L20.78 17.9654L20.4873 17.6738H20.0742V18.6738ZM24.75 23.332H25.75V22.9167L25.4558 22.6236L24.75 23.332ZM24.75 28.0781L25.4571 28.7852L25.75 28.4923V28.0781H24.75ZM22.4121 30.416L21.705 29.7089L20.9979 30.416L21.705 31.1231L22.4121 30.416ZM24.75 32.7539H25.75V32.3397L25.4571 32.0468L24.75 32.7539ZM24.75 37.3418L25.4558 38.0502L25.75 37.7571V37.3418H24.75ZM20.0742 42V43H20.4873L20.78 42.7084L20.0742 42ZM11.0566 42H10.0566V43H11.0566V42ZM11.0566 37.3418V36.3418H10.0566V37.3418H11.0566ZM16.8223 37.3418V38.3418H17.8223V37.3418H16.8223ZM16.8223 32.3672H17.8223V31.3672H16.8223V32.3672ZM11.0566 32.3672H10.0566V33.3672H11.0566V32.3672ZM11.0566 28.3066V27.3066H10.0566V28.3066H11.0566ZM16.8223 28.3066V29.3066H17.8223V28.3066H16.8223ZM2.05664 18.6738V17.6738H1.05664V18.6738H2.05664ZM9.82617 18.6738H10.8262V17.6738H9.82617V18.6738ZM9.82617 42V43H10.8262V42H9.82617ZM2.05664 42H1.05664V43H2.05664V42ZM16.8223 22.332H11.0566V24.332H16.8223V22.332ZM12.0566 23.332V18.6738H10.0566V23.332H12.0566ZM11.0566 19.6738H20.0742V17.6738H11.0566V19.6738ZM19.3684 19.3823L24.0442 24.0405L25.4558 22.6236L20.78 17.9654L19.3684 19.3823ZM23.75 23.332V28.0781H25.75V23.332H23.75ZM24.0429 27.371L21.705 29.7089L23.1192 31.1231L25.4571 28.7852L24.0429 27.371ZM21.705 31.1231L24.0429 33.461L25.4571 32.0468L23.1192 29.7089L21.705 31.1231ZM23.75 32.7539V37.3418H25.75V32.7539H23.75ZM24.0442 36.6334L19.3684 41.2916L20.78 42.7084L25.4558 38.0502L24.0442 36.6334ZM20.0742 41H11.0566V43H20.0742V41ZM12.0566 42V37.3418H10.0566V42H12.0566ZM11.0566 38.3418H16.8223V36.3418H11.0566V38.3418ZM17.8223 37.3418V32.3672H15.8223V37.3418H17.8223ZM16.8223 31.3672H11.0566V33.3672H16.8223V31.3672ZM12.0566 32.3672V28.3066H10.0566V32.3672H12.0566ZM11.0566 29.3066H16.8223V27.3066H11.0566V29.3066ZM17.8223 28.3066V23.332H15.8223V28.3066H17.8223ZM2.05664 19.6738H9.82617V17.6738H2.05664V19.6738ZM8.82617 18.6738V42H10.8262V18.6738H8.82617ZM9.82617 41H2.05664V43H9.82617V41ZM3.05664 42V18.6738H1.05664V42H3.05664ZM40.4297 42H39.4297V43H40.4297V42ZM40.4297 27.9902H41.4297V26.9902H40.4297V27.9902ZM29.373 27.9902H28.373V28.9902H29.373V27.9902ZM29.373 25.6699L28.6659 24.9628L28.373 25.2557V25.6699H29.373ZM31.7109 23.332V22.332H31.2967L31.0038 22.6249L31.7109 23.332ZM43.3652 23.332L44.0723 22.6249L43.7794 22.332H43.3652V23.332ZM48.0234 27.9902H49.0234V27.576L48.7305 27.2831L48.0234 27.9902ZM48.0234 42V43H49.0234V42H48.0234ZM39.1992 31.1367H40.1992V30.1367H39.1992V31.1367ZM39.1992 34.3711V35.3711H40.1992V34.3711H39.1992ZM35.1914 34.3711V33.3711H34.1914V34.3711H35.1914ZM35.1914 37.6406H34.1914V38.6406H35.1914V37.6406ZM39.1992 37.6406H40.1992V36.6406H39.1992V37.6406ZM39.1992 39.6973L39.9036 40.4071L40.1992 40.1137V39.6973H39.1992ZM36.8789 42V43H37.2909L37.5833 42.7098L36.8789 42ZM30.9375 42L30.2364 42.7131L30.5283 43H30.9375V42ZM27.8086 38.9238H26.8086V39.343L27.1075 39.6369L27.8086 38.9238ZM27.8086 34.248L27.1035 33.539L26.8086 33.8322V34.248H27.8086ZM30.9375 31.1367V30.1367H30.5249L30.2324 30.4276L30.9375 31.1367ZM41.4297 42V27.9902H39.4297V42H41.4297ZM40.4297 26.9902H29.373V28.9902H40.4297V26.9902ZM30.373 27.9902V25.6699H28.373V27.9902H30.373ZM30.0802 26.377L32.418 24.0391L31.0038 22.6249L28.6659 24.9628L30.0802 26.377ZM31.7109 24.332H43.3652V22.332H31.7109V24.332ZM42.6581 24.0391L47.3163 28.6973L48.7305 27.2831L44.0723 22.6249L42.6581 24.0391ZM47.0234 27.9902V42H49.0234V27.9902H47.0234ZM48.0234 41H40.4297V43H48.0234V41ZM38.1992 31.1367V34.3711H40.1992V31.1367H38.1992ZM39.1992 33.3711H35.1914V35.3711H39.1992V33.3711ZM34.1914 34.3711V37.6406H36.1914V34.3711H34.1914ZM35.1914 38.6406H39.1992V36.6406H35.1914V38.6406ZM38.1992 37.6406V39.6973H40.1992V37.6406H38.1992ZM38.4948 38.9875L36.1745 41.2902L37.5833 42.7098L39.9036 40.4071L38.4948 38.9875ZM36.8789 41H30.9375V43H36.8789V41ZM31.6386 41.2869L28.5097 38.2107L27.1075 39.6369L30.2364 42.7131L31.6386 41.2869ZM28.8086 38.9238V34.248H26.8086V38.9238H28.8086ZM28.5137 34.9571L31.6426 31.8458L30.2324 30.4276L27.1035 33.539L28.5137 34.9571ZM30.9375 32.1367H39.1992V30.1367H30.9375V32.1367ZM51.5391 42H50.5391V43H51.5391V42ZM51.5391 23.332V22.332H50.5391V23.332H51.5391ZM59.3789 23.332H60.3789V22.332H59.3789V23.332ZM59.3789 42V43H60.3789V42H59.3789ZM63.9844 27.9902H64.9844V26.9902H63.9844V27.9902ZM60.6445 27.9902H59.6445V28.9902H60.6445V27.9902ZM60.6445 25.9512L59.935 25.2464L59.6445 25.5389V25.9512H60.6445ZM63.2461 23.332V22.332H62.8299L62.5366 22.6273L63.2461 23.332ZM67.5703 23.332L68.2774 22.6249L67.9845 22.332H67.5703V23.332ZM71.7715 27.5332H72.7715V27.119L72.4786 26.8261L71.7715 27.5332ZM71.7715 42V43H72.7715V42H71.7715ZM63.9844 42H62.9844V43H63.9844V42ZM52.5391 42V23.332H50.5391V42H52.5391ZM51.5391 24.332H59.3789V22.332H51.5391V24.332ZM58.3789 23.332V42H60.3789V23.332H58.3789ZM59.3789 41H51.5391V43H59.3789V41ZM63.9844 26.9902H60.6445V28.9902H63.9844V26.9902ZM61.6445 27.9902V25.9512H59.6445V27.9902H61.6445ZM61.354 26.6559L63.9556 24.0368L62.5366 22.6273L59.935 25.2464L61.354 26.6559ZM63.2461 24.332H67.5703V22.332H63.2461V24.332ZM66.8632 24.0391L71.0644 28.2403L72.4786 26.8261L68.2774 22.6249L66.8632 24.0391ZM70.7715 27.5332V42H72.7715V27.5332H70.7715ZM71.7715 41H63.9844V43H71.7715V41ZM64.9844 42V27.9902H62.9844V42H64.9844ZM82.9863 42V43H83.9863V42H82.9863ZM79.875 42L79.1679 42.7071L79.4608 43H79.875V42ZM75.2168 37.3418H74.2168V37.756L74.5097 38.0489L75.2168 37.3418ZM75.2168 27.9902L74.5097 27.2831L74.2168 27.576V27.9902H75.2168ZM79.875 23.332V22.332H79.4608L79.1679 22.6249L79.875 23.332ZM82.9863 23.332H83.9863V22.332H82.9863V23.332ZM84.2168 27.9902H83.2168V28.9902H84.2168V27.9902ZM84.2168 23.332V22.332H83.2168V23.332H84.2168ZM90.7734 23.332L91.4805 22.6249L91.1877 22.332H90.7734V23.332ZM95.4316 27.9902H96.4316V27.576L96.1387 27.2831L95.4316 27.9902ZM95.4316 30.7852V31.7852H96.4316V30.7852H95.4316ZM87.6621 30.7852H86.6621V31.7852H87.6621V30.7852ZM87.6621 27.9902H88.6621V26.9902H87.6621V27.9902ZM84.2168 42H83.2168V43H84.2168V42ZM84.2168 37.6406V36.6406H83.2168V37.6406H84.2168ZM87.6621 37.6406V38.6406H88.6621V37.6406H87.6621ZM87.6621 35.3027V34.3027H86.6621V35.3027H87.6621ZM95.4316 35.3027H96.4316V34.3027H95.4316V35.3027ZM95.4316 37.3418L96.1387 38.0489L96.4316 37.756V37.3418H95.4316ZM90.7734 42V43H91.1877L91.4805 42.7071L90.7734 42ZM82.9863 41H79.875V43H82.9863V41ZM80.5821 41.2929L75.9239 36.6347L74.5097 38.0489L79.1679 42.7071L80.5821 41.2929ZM76.2168 37.3418V27.9902H74.2168V37.3418H76.2168ZM75.9239 28.6973L80.5821 24.0391L79.1679 22.6249L74.5097 27.2831L75.9239 28.6973ZM79.875 24.332H82.9863V22.332H79.875V24.332ZM81.9863 23.332V42H83.9863V23.332H81.9863ZM85.2168 27.9902V23.332H83.2168V27.9902H85.2168ZM84.2168 24.332H90.7734V22.332H84.2168V24.332ZM90.0663 24.0391L94.7245 28.6973L96.1387 27.2831L91.4805 22.6249L90.0663 24.0391ZM94.4316 27.9902V30.7852H96.4316V27.9902H94.4316ZM95.4316 29.7852H87.6621V31.7852H95.4316V29.7852ZM88.6621 30.7852V27.9902H86.6621V30.7852H88.6621ZM87.6621 26.9902H84.2168V28.9902H87.6621V26.9902ZM85.2168 42V37.6406H83.2168V42H85.2168ZM84.2168 38.6406H87.6621V36.6406H84.2168V38.6406ZM88.6621 37.6406V35.3027H86.6621V37.6406H88.6621ZM87.6621 36.3027H95.4316V34.3027H87.6621V36.3027ZM94.4316 35.3027V37.3418H96.4316V35.3027H94.4316ZM94.7245 36.6347L90.0663 41.2929L91.4805 42.7071L96.1387 38.0489L94.7245 36.6347ZM90.7734 41H84.2168V43H90.7734V41ZM117.281 42H116.281V43H117.281V42ZM117.281 23.332V22.332H116.281V23.332H117.281ZM125.121 23.332H126.121V22.332H125.121V23.332ZM125.121 42V43H126.121V42H125.121ZM129.727 27.9902H130.727V26.9902H129.727V27.9902ZM126.387 27.9902H125.387V28.9902H126.387V27.9902ZM126.387 25.9512L125.677 25.2464L125.387 25.5389V25.9512H126.387ZM128.988 23.332V22.332H128.572L128.279 22.6273L128.988 23.332ZM133.312 23.332L134.02 22.6249L133.727 22.332H133.312V23.332ZM137.514 27.5332H138.514V27.119L138.221 26.8261L137.514 27.5332ZM137.514 42V43H138.514V42H137.514ZM129.727 42H128.727V43H129.727V42ZM118.281 42V23.332H116.281V42H118.281ZM117.281 24.332H125.121V22.332H117.281V24.332ZM124.121 23.332V42H126.121V23.332H124.121ZM125.121 41H117.281V43H125.121V41ZM129.727 26.9902H126.387V28.9902H129.727V26.9902ZM127.387 27.9902V25.9512H125.387V27.9902H127.387ZM127.096 26.6559L129.698 24.0368L128.279 22.6273L125.677 25.2464L127.096 26.6559ZM128.988 24.332H133.312V22.332H128.988V24.332ZM132.605 24.0391L136.807 28.2403L138.221 26.8261L134.02 22.6249L132.605 24.0391ZM136.514 27.5332V42H138.514V27.5332H136.514ZM137.514 41H129.727V43H137.514V41ZM130.727 42V27.9902H128.727V42H130.727ZM161.93 37.3418L162.637 38.0489L162.93 37.756V37.3418H161.93ZM157.271 42V43H157.686L157.979 42.7071L157.271 42ZM152.068 42H151.068V43H152.068V42ZM152.068 37.6406V36.6406H151.068V37.6406H152.068ZM154.002 37.6406V38.6406H155.002V37.6406H154.002ZM154.002 27.9902H155.002V26.9902H154.002V27.9902ZM152.068 27.9902H151.068V28.9902H152.068V27.9902ZM152.068 23.332V22.332H151.068V23.332H152.068ZM157.271 23.332L157.979 22.6249L157.686 22.332H157.271V23.332ZM161.93 27.9902H162.93V27.576L162.637 27.2831L161.93 27.9902ZM148.816 37.6406H147.816V38.6406H148.816V37.6406ZM150.838 37.6406H151.838V36.6406H150.838V37.6406ZM150.838 42V43H151.838V42H150.838ZM145.617 42L144.91 42.7071L145.203 43H145.617V42ZM140.959 37.3418H139.959V37.756L140.252 38.0489L140.959 37.3418ZM140.959 27.9902L140.252 27.2831L139.959 27.576V27.9902H140.959ZM145.617 23.332V22.332H145.203L144.91 22.6249L145.617 23.332ZM150.838 23.332H151.838V22.332H150.838V23.332ZM150.838 27.9902V28.9902H151.838V27.9902H150.838ZM148.816 27.9902V26.9902H147.816V27.9902H148.816ZM161.223 36.6347L156.564 41.2929L157.979 42.7071L162.637 38.0489L161.223 36.6347ZM157.271 41H152.068V43H157.271V41ZM153.068 42V37.6406H151.068V42H153.068ZM152.068 38.6406H154.002V36.6406H152.068V38.6406ZM155.002 37.6406V27.9902H153.002V37.6406H155.002ZM154.002 26.9902H152.068V28.9902H154.002V26.9902ZM153.068 27.9902V23.332H151.068V27.9902H153.068ZM152.068 24.332H157.271V22.332H152.068V24.332ZM156.564 24.0391L161.223 28.6973L162.637 27.2831L157.979 22.6249L156.564 24.0391ZM160.93 27.9902V37.3418H162.93V27.9902H160.93ZM148.816 38.6406H150.838V36.6406H148.816V38.6406ZM149.838 37.6406V42H151.838V37.6406H149.838ZM150.838 41H145.617V43H150.838V41ZM146.324 41.2929L141.666 36.6347L140.252 38.0489L144.91 42.7071L146.324 41.2929ZM141.959 37.3418V27.9902H139.959V37.3418H141.959ZM141.666 28.6973L146.324 24.0391L144.91 22.6249L140.252 27.2831L141.666 28.6973ZM145.617 24.332H150.838V22.332H145.617V24.332ZM149.838 23.332V27.9902H151.838V23.332H149.838ZM150.838 26.9902H148.816V28.9902H150.838V26.9902ZM147.816 27.9902V37.6406H149.816V27.9902H147.816ZM165.709 42H164.709V43H165.709V42ZM165.709 23.332V22.332H164.709V23.332H165.709ZM173.496 23.332H174.496V22.332H173.496V23.332ZM173.496 42V43H174.496V42H173.496ZM177.891 27.9902H178.891V26.9902H177.891V27.9902ZM174.727 27.9902H173.727V28.9902H174.727V27.9902ZM174.727 25.793L174.017 25.0884L173.727 25.3809V25.793H174.727ZM177.17 23.332V22.332H176.754L176.46 22.6275L177.17 23.332ZM183.182 23.332L183.889 22.6249L183.596 22.332H183.182V23.332ZM185.678 25.8281H186.678V25.4139L186.385 25.121L185.678 25.8281ZM185.678 42V43H186.678V42H185.678ZM177.891 42H176.891V43H177.891V42ZM190.072 27.9902H191.072V26.9902H190.072V27.9902ZM186.908 27.9902H185.908V28.9902H186.908V27.9902ZM186.908 25.8281L186.186 25.1364L185.908 25.4265V25.8281H186.908ZM189.299 23.332V22.332H188.872L188.577 22.6403L189.299 23.332ZM194.045 23.332L194.755 22.6282L194.462 22.332H194.045V23.332ZM197.842 27.1641H198.842V26.7525L198.552 26.4602L197.842 27.1641ZM197.842 42V43H198.842V42H197.842ZM190.072 42H189.072V43H190.072V42ZM166.709 42V23.332H164.709V42H166.709ZM165.709 24.332H173.496V22.332H165.709V24.332ZM172.496 23.332V42H174.496V23.332H172.496ZM173.496 41H165.709V43H173.496V41ZM177.891 26.9902H174.727V28.9902H177.891V26.9902ZM175.727 27.9902V25.793H173.727V27.9902H175.727ZM175.436 26.4975L177.88 24.0366L176.46 22.6275L174.017 25.0884L175.436 26.4975ZM177.17 24.332H183.182V22.332H177.17V24.332ZM182.475 24.0391L184.971 26.5352L186.385 25.121L183.889 22.6249L182.475 24.0391ZM184.678 25.8281V42H186.678V25.8281H184.678ZM185.678 41H177.891V43H185.678V41ZM178.891 42V27.9902H176.891V42H178.891ZM190.072 26.9902H186.908V28.9902H190.072V26.9902ZM187.908 27.9902V25.8281H185.908V27.9902H187.908ZM187.63 26.5198L190.021 24.0237L188.577 22.6403L186.186 25.1364L187.63 26.5198ZM189.299 24.332H194.045V22.332H189.299V24.332ZM193.335 24.0359L197.131 27.8679L198.552 26.4602L194.755 22.6282L193.335 24.0359ZM196.842 27.1641V42H198.842V27.1641H196.842ZM197.842 41H190.072V43H197.842V41ZM191.072 42V27.9902H189.072V42H191.072ZM201.393 23.332V22.332H200.393V23.332H201.393ZM209.18 23.332H210.18V22.332H209.18V23.332ZM209.18 42V43H210.18V42H209.18ZM201.393 42H200.393V43H201.393V42ZM201.393 16.0547V15.0547H200.393V16.0547H201.393ZM209.18 16.0547H210.18V15.0547H209.18V16.0547ZM209.18 21.0117V22.0117H210.18V21.0117H209.18ZM201.393 21.0117H200.393V22.0117H201.393V21.0117ZM201.393 24.332H209.18V22.332H201.393V24.332ZM208.18 23.332V42H210.18V23.332H208.18ZM209.18 41H201.393V43H209.18V41ZM202.393 42V23.332H200.393V42H202.393ZM201.393 17.0547H209.18V15.0547H201.393V17.0547ZM208.18 16.0547V21.0117H210.18V16.0547H208.18ZM209.18 20.0117H201.393V22.0117H209.18V20.0117ZM202.393 21.0117V16.0547H200.393V21.0117H202.393ZM225.176 42H224.176V43H225.176V42ZM225.176 27.9902H226.176V26.9902H225.176V27.9902ZM214.119 27.9902H213.119V28.9902H214.119V27.9902ZM214.119 25.6699L213.412 24.9628L213.119 25.2557V25.6699H214.119ZM216.457 23.332V22.332H216.043L215.75 22.6249L216.457 23.332ZM228.111 23.332L228.818 22.6249L228.526 22.332H228.111V23.332ZM232.77 27.9902H233.77V27.576L233.477 27.2831L232.77 27.9902ZM232.77 42V43H233.77V42H232.77ZM223.945 31.1367H224.945V30.1367H223.945V31.1367ZM223.945 34.3711V35.3711H224.945V34.3711H223.945ZM219.938 34.3711V33.3711H218.938V34.3711H219.938ZM219.938 37.6406H218.938V38.6406H219.938V37.6406ZM223.945 37.6406H224.945V36.6406H223.945V37.6406ZM223.945 39.6973L224.65 40.4071L224.945 40.1137V39.6973H223.945ZM221.625 42V43H222.037L222.329 42.7098L221.625 42ZM215.684 42L214.983 42.7131L215.274 43H215.684V42ZM212.555 38.9238H211.555V39.343L211.854 39.6369L212.555 38.9238ZM212.555 34.248L211.85 33.539L211.555 33.8322V34.248H212.555ZM215.684 31.1367V30.1367H215.271L214.978 30.4276L215.684 31.1367ZM226.176 42V27.9902H224.176V42H226.176ZM225.176 26.9902H214.119V28.9902H225.176V26.9902ZM215.119 27.9902V25.6699H213.119V27.9902H215.119ZM214.826 26.377L217.164 24.0391L215.75 22.6249L213.412 24.9628L214.826 26.377ZM216.457 24.332H228.111V22.332H216.457V24.332ZM227.404 24.0391L232.062 28.6973L233.477 27.2831L228.818 22.6249L227.404 24.0391ZM231.77 27.9902V42H233.77V27.9902H231.77ZM232.77 41H225.176V43H232.77V41ZM222.945 31.1367V34.3711H224.945V31.1367H222.945ZM223.945 33.3711H219.938V35.3711H223.945V33.3711ZM218.938 34.3711V37.6406H220.938V34.3711H218.938ZM219.938 38.6406H223.945V36.6406H219.938V38.6406ZM222.945 37.6406V39.6973H224.945V37.6406H222.945ZM223.241 38.9875L220.921 41.2902L222.329 42.7098L224.65 40.4071L223.241 38.9875ZM221.625 41H215.684V43H221.625V41ZM216.385 41.2869L213.256 38.2107L211.854 39.6369L214.983 42.7131L216.385 41.2869ZM213.555 38.9238V34.248H211.555V38.9238H213.555ZM213.26 34.9571L216.389 31.8458L214.978 30.4276L211.85 33.539L213.26 34.9571ZM215.684 32.1367H223.945V30.1367H215.684V32.1367Z" fill="#240C06"/>
<defs>
<clipPath id="clip0">
<rect width="45" height="43" fill="white" transform="translate(83)"/>
</clipPath>
</defs>
</svg>
