<svg width="63" height="47" viewBox="0 0 63 47" fill="none" xmlns="http://www.w3.org/2000/svg">
<g clip-path="url(#clip0)">
<path d="M55.9057 36.2255C64.4166 28.0928 64.4166 14.9072 55.9057 6.77452C47.3947 -1.35815 33.5958 -1.35814 25.0849 6.77452C16.5739 14.9072 16.5739 28.0928 25.0849 36.2255C33.5958 44.3581 47.3947 44.3581 55.9057 36.2255Z" fill="#FCC24C"/>
<path d="M52.785 33.2436C59.5725 26.7578 59.5725 16.2422 52.785 9.75642C45.9976 3.27062 34.9929 3.27062 28.2055 9.75642C21.418 16.2422 21.418 26.7578 28.2055 33.2436C34.9929 39.7293 45.9976 39.7293 52.785 33.2436Z" fill="#F4EFED"/>
<path d="M40.8001 9.08274C41.5204 9.08274 42.0905 9.62763 42.0905 10.3158V10.9467C43.8611 11.1474 45.3618 11.6923 46.7422 12.5239C47.2224 12.7819 47.6425 13.2121 47.6425 13.9004C47.6425 14.7895 46.8925 15.4776 45.9619 15.4776C45.6618 15.4776 45.3618 15.3915 45.0615 15.2196C44.0112 14.6175 42.9908 14.1873 41.9704 13.9579V19.4639C46.5323 20.5537 48.4829 22.3029 48.4829 25.3715C48.4829 28.526 45.9019 30.6194 42.0905 30.9635V32.6842C42.0905 33.3724 41.5204 33.9173 40.8001 33.9173C40.0797 33.9173 39.4796 33.3724 39.4796 32.6842V30.9062C37.2287 30.6768 35.1578 29.9026 33.3272 28.6694C32.8171 28.354 32.5167 27.8952 32.5167 27.2929C32.5167 26.4038 33.2371 25.7157 34.1673 25.7157C34.5275 25.7157 34.8877 25.8304 35.1577 26.0311C36.5681 27.0062 37.9487 27.6658 39.5995 27.9525V22.3029C35.2176 21.2133 33.1768 19.6359 33.1768 16.3954C33.1768 13.327 35.7277 11.2049 39.4794 10.918V10.3158C39.4798 9.62763 40.0797 9.08274 40.8001 9.08274ZM39.5998 18.8617V13.7859C37.6791 13.9579 36.7186 14.9329 36.7186 16.1949C36.7186 17.3992 37.289 18.1447 39.5998 18.8617ZM41.9706 22.8478V28.0671C43.8913 27.8662 44.9416 26.9486 44.9416 25.5721C44.9416 24.3104 44.2814 23.5361 41.9706 22.8478Z" fill="#FCC24C"/>
<path d="M40.5 0.671875C40.2056 0.671875 39.9127 0.679098 39.6211 0.690184C51.2515 1.1311 60.5391 10.2783 60.5391 21.5C60.5391 32.7217 51.2515 41.8689 39.6211 42.3098C39.9127 42.3209 40.2056 42.3281 40.5 42.3281C52.538 42.3281 62.2969 33.003 62.2969 21.5C62.2969 9.997 52.538 0.671875 40.5 0.671875V0.671875Z" fill="#DEA42E"/>
<path d="M40.5 42.3281C40.7944 42.3281 41.0873 42.3209 41.3789 42.3098C29.7485 41.8689 20.4609 32.7217 20.4609 21.5C20.4609 10.2783 29.7485 1.1311 41.3789 0.690184C41.0873 0.679098 40.7944 0.671875 40.5 0.671875C28.462 0.671875 18.7031 9.997 18.7031 21.5C18.7031 33.003 28.462 42.3281 40.5 42.3281Z" fill="#FCE06A"/>
<path d="M40.5 42.6641C28.2872 42.6641 18.3516 33.17 18.3516 21.5C18.3516 9.83004 28.2872 0.335938 40.5 0.335938C52.7128 0.335938 62.6484 9.83004 62.6484 21.5C62.6484 33.17 52.7128 42.6641 40.5 42.6641ZM40.5 1.00781C28.675 1.00781 19.0547 10.2006 19.0547 21.5C19.0547 32.7994 28.675 41.9922 40.5 41.9922C52.325 41.9922 61.9453 32.7994 61.9453 21.5C61.9453 10.2006 52.325 1.00781 40.5 1.00781Z" fill="#690589"/>
<path d="M40.5 38.4464C30.7211 38.4464 22.7654 30.8443 22.7654 21.5C22.7654 12.1557 30.7211 4.55363 40.5 4.55363C50.2789 4.55363 58.2346 12.1557 58.2346 21.5C58.2346 30.8443 50.2789 38.4464 40.5 38.4464V38.4464ZM40.5 5.22551C31.1089 5.22551 23.4686 12.5263 23.4686 21.5C23.4686 30.4737 31.1089 37.7745 40.5 37.7745C49.8911 37.7745 57.5314 30.4737 57.5314 21.5C57.5314 12.5263 49.8911 5.22551 40.5 5.22551V5.22551Z" fill="#690589"/>
<path d="M25.4148 17.1852C25.3786 17.1852 25.3417 17.1798 25.3055 17.1684C25.1209 17.1108 25.0202 16.921 25.0806 16.7448C25.3201 16.045 25.6108 15.353 25.9446 14.6882C26.0286 14.5209 26.2383 14.4503 26.4136 14.5306C26.5887 14.6109 26.6625 14.8116 26.5785 14.9788C26.2578 15.6172 25.9787 16.2815 25.7488 16.9534C25.7004 17.0954 25.5626 17.1852 25.4148 17.1852V17.1852Z" fill="#690589"/>
<path d="M40.8001 34.2532C39.8781 34.2532 39.1282 33.5494 39.1282 32.6842V31.2047C36.9722 30.936 34.9541 30.1761 33.1249 28.944C32.5012 28.5589 32.1655 27.9853 32.1655 27.2929C32.1655 26.2201 33.0449 25.3797 34.1677 25.3797C34.6041 25.3797 35.0437 25.5205 35.374 25.7659C36.7165 26.6936 37.9308 27.2526 39.2484 27.5408V22.5612C34.6911 21.3791 32.8257 19.5808 32.8257 16.3954C32.8257 13.2595 35.2877 11.0149 39.1282 10.6124V10.3158C39.1282 9.45059 39.8783 8.7468 40.8001 8.7468C41.7208 8.7468 42.4422 9.43598 42.4422 10.3158V10.6521C44.0555 10.8748 45.5242 11.3942 46.9225 12.2355C47.6235 12.615 47.9943 13.1906 47.9943 13.9004C47.9943 14.9732 47.1016 15.8138 45.962 15.8138C45.5991 15.8138 45.2352 15.7108 44.881 15.5079C43.9784 14.9904 43.1369 14.6239 42.3221 14.3944V19.2032C46.8833 20.344 48.8347 22.1984 48.8347 25.3717C48.8347 28.5187 46.337 30.807 42.4422 31.265V32.6842C42.4422 33.564 41.7208 34.2532 40.8001 34.2532V34.2532ZM34.1677 26.0516C33.4271 26.0516 32.8686 26.5852 32.8686 27.2929C32.8686 27.7525 33.0873 28.1208 33.5185 28.3874C35.3489 29.6201 37.3632 30.3528 39.517 30.5723C39.6958 30.5905 39.8313 30.7346 39.8313 30.9064V32.6844C39.8313 33.179 40.2659 33.5815 40.8001 33.5815C41.3265 33.5815 41.7391 33.1874 41.7391 32.6844V30.9637C41.7391 30.7903 41.8771 30.6456 42.0576 30.6293C45.8042 30.291 48.1317 28.2764 48.1317 25.3717C48.1317 22.467 46.322 20.8498 41.8855 19.7901C41.7291 19.7526 41.6192 19.6184 41.6192 19.4642V13.9582C41.6192 13.8556 41.6682 13.7587 41.7524 13.6948C41.8366 13.6312 41.9467 13.6076 42.0513 13.6312C43.0727 13.8608 44.1167 14.2862 45.2427 14.9319C45.4895 15.0733 45.7249 15.142 45.9622 15.142C46.7074 15.142 47.2913 14.5967 47.2913 13.9006C47.2913 13.4387 47.0487 13.074 46.5701 12.817C46.565 12.8143 46.5599 12.8113 46.555 12.8085C45.1557 11.9653 43.682 11.4655 42.0493 11.2804C41.8723 11.2605 41.7391 11.1172 41.7391 10.9469V10.316C41.7391 9.8129 41.3265 9.41885 40.8001 9.41885C40.2659 9.41885 39.8313 9.8213 39.8313 10.316V10.918C39.8313 11.093 39.6905 11.239 39.5079 11.2529C35.8757 11.5305 33.5289 13.5492 33.5289 16.3954C33.5289 19.3104 35.2559 20.8755 39.6886 21.9777C39.8435 22.0162 39.9516 22.1499 39.9516 22.3029V27.9525C39.9516 28.0521 39.9053 28.1467 39.8252 28.2105C39.7452 28.2743 39.6399 28.3009 39.5371 28.2831C37.9475 28.0068 36.5335 27.3964 34.9522 26.3032C34.733 26.1406 34.4507 26.0516 34.1677 26.0516V26.0516ZM39.4798 10.918H39.4815H39.4798ZM41.9706 28.4032C41.8844 28.4032 41.8006 28.3729 41.7359 28.3173C41.6616 28.2537 41.619 28.1626 41.619 28.0672V22.8479C41.619 22.7411 41.6723 22.6407 41.7621 22.5773C41.8523 22.5142 41.9685 22.4954 42.0752 22.5273C44.3907 23.2171 45.293 24.0708 45.293 25.5724C45.293 27.152 44.0959 28.1831 42.0087 28.4013C41.9961 28.4025 41.9832 28.4032 41.9706 28.4032ZM42.3221 23.3131V27.6794C43.307 27.5089 44.5899 27.0105 44.5899 25.5722C44.5901 24.6351 44.2051 23.95 42.3221 23.3131V23.3131ZM39.5998 19.1976C39.5633 19.1976 39.5267 19.1923 39.4912 19.1812C37.2136 18.4745 36.367 17.6651 36.367 16.1947C36.367 14.6563 37.5632 13.6308 39.5671 13.4513C39.6654 13.4424 39.7635 13.4736 39.8366 13.5374C39.9097 13.6011 39.9514 13.6913 39.9514 13.7859V18.8617C39.9514 18.9692 39.8974 19.0703 39.8065 19.1335C39.7455 19.1756 39.6731 19.1976 39.5998 19.1976V19.1976ZM39.2483 14.168C37.858 14.3922 37.0702 15.1179 37.0702 16.1947C37.0702 17.1347 37.4208 17.7545 39.2483 18.3911V14.168Z" fill="#690589"/>
</g>
<path d="M16.8223 19.332H11.0566V14.6738H20.0742L24.75 19.332V24.0781L22.4121 26.416L24.75 28.7539V33.3418L20.0742 38H11.0566V33.3418H16.8223V28.3672H11.0566V24.3066H16.8223V19.332ZM2.05664 14.6738H9.82617V38H2.05664V14.6738Z" fill="#EA907A"/>
<path d="M16.8223 19.332H17.8223V18.332H16.8223V19.332ZM11.0566 19.332H10.0566V20.332H11.0566V19.332ZM11.0566 14.6738V13.6738H10.0566V14.6738H11.0566ZM20.0742 14.6738L20.78 13.9654L20.4873 13.6738H20.0742V14.6738ZM24.75 19.332H25.75V18.9167L25.4558 18.6236L24.75 19.332ZM24.75 24.0781L25.4571 24.7852L25.75 24.4923V24.0781H24.75ZM22.4121 26.416L21.705 25.7089L20.9979 26.416L21.705 27.1231L22.4121 26.416ZM24.75 28.7539H25.75V28.3397L25.4571 28.0468L24.75 28.7539ZM24.75 33.3418L25.4558 34.0502L25.75 33.7571V33.3418H24.75ZM20.0742 38V39H20.4873L20.78 38.7084L20.0742 38ZM11.0566 38H10.0566V39H11.0566V38ZM11.0566 33.3418V32.3418H10.0566V33.3418H11.0566ZM16.8223 33.3418V34.3418H17.8223V33.3418H16.8223ZM16.8223 28.3672H17.8223V27.3672H16.8223V28.3672ZM11.0566 28.3672H10.0566V29.3672H11.0566V28.3672ZM11.0566 24.3066V23.3066H10.0566V24.3066H11.0566ZM16.8223 24.3066V25.3066H17.8223V24.3066H16.8223ZM2.05664 14.6738V13.6738H1.05664V14.6738H2.05664ZM9.82617 14.6738H10.8262V13.6738H9.82617V14.6738ZM9.82617 38V39H10.8262V38H9.82617ZM2.05664 38H1.05664V39H2.05664V38ZM16.8223 18.332H11.0566V20.332H16.8223V18.332ZM12.0566 19.332V14.6738H10.0566V19.332H12.0566ZM11.0566 15.6738H20.0742V13.6738H11.0566V15.6738ZM19.3684 15.3823L24.0442 20.0405L25.4558 18.6236L20.78 13.9654L19.3684 15.3823ZM23.75 19.332V24.0781H25.75V19.332H23.75ZM24.0429 23.371L21.705 25.7089L23.1192 27.1231L25.4571 24.7852L24.0429 23.371ZM21.705 27.1231L24.0429 29.461L25.4571 28.0468L23.1192 25.7089L21.705 27.1231ZM23.75 28.7539V33.3418H25.75V28.7539H23.75ZM24.0442 32.6334L19.3684 37.2916L20.78 38.7084L25.4558 34.0502L24.0442 32.6334ZM20.0742 37H11.0566V39H20.0742V37ZM12.0566 38V33.3418H10.0566V38H12.0566ZM11.0566 34.3418H16.8223V32.3418H11.0566V34.3418ZM17.8223 33.3418V28.3672H15.8223V33.3418H17.8223ZM16.8223 27.3672H11.0566V29.3672H16.8223V27.3672ZM12.0566 28.3672V24.3066H10.0566V28.3672H12.0566ZM11.0566 25.3066H16.8223V23.3066H11.0566V25.3066ZM17.8223 24.3066V19.332H15.8223V24.3066H17.8223ZM2.05664 15.6738H9.82617V13.6738H2.05664V15.6738ZM8.82617 14.6738V38H10.8262V14.6738H8.82617ZM9.82617 37H2.05664V39H9.82617V37ZM3.05664 38V14.6738H1.05664V38H3.05664Z" fill="#240C06"/>
<defs>
<clipPath id="clip0">
<rect width="45" height="43" fill="white" transform="translate(18)"/>
</clipPath>
</defs>
</svg>
