<?xml version="1.0"?>
<svg xmlns="http://www.w3.org/2000/svg" xmlns:xlink="http://www.w3.org/1999/xlink" xmlns:svgjs="http://svgjs.com/svgjs" version="1.1" width="512" height="512" x="0" y="0" viewBox="0 0 304.719 304.719" style="enable-background:new 0 0 512 512" xml:space="preserve" class=""><g>
<g xmlns="http://www.w3.org/2000/svg">
	<path d="M299.333,233.881c-21.713,0-43.434,0-65.146,0c-43.023,0-86.04,0-129.064,0c-31.168,0-62.334,0-93.5,0   c-2.086,0-4.171,0-6.252,0c1.79,1.79,3.585,3.584,5.375,5.376c0-30.316,0-60.617,0-90.926c0-27.625,0-55.243,0-82.868   c-1.79,1.791-3.585,3.586-5.375,5.375c21.711,0,43.428,0,65.14,0c43.024,0,86.049,0,129.073,0c31.171,0,62.342,0,93.502,0   c2.09,0,4.168,0,6.258,0c-1.796-1.79-3.591-3.585-5.375-5.375c0,30.307,0,60.618,0,90.926c0,27.626,0,55.239,0,82.868   c0,6.934,10.751,6.934,10.751,0c0-30.316,0-60.617,0-90.926c0-27.625,0-55.243,0-82.868c0-2.929-2.446-5.375-5.376-5.375   c-21.712,0-43.434,0-65.146,0c-43.023,0-86.045,0-129.07,0c-31.168,0-62.334,0-93.5,0c-2.087,0-4.171,0-6.252,0   C2.446,60.088,0,62.535,0,65.464c0,30.307,0,60.618,0,90.926c0,27.626,0,55.239,0,82.868c0,2.929,2.446,5.373,5.376,5.373   c21.711,0,43.428,0,65.14,0c43.023,0,86.049,0,129.072,0c31.166,0,62.337,0,93.497,0c2.096,0,4.173,0,6.258,0   C306.271,244.63,306.271,233.881,299.333,233.881z" fill="#006d77" data-original="#000000" style="" class=""/>
	<path d="M94.736,207.003c-21.501,0-43.002,0-64.504,0c0.898,0.898,1.79,1.792,2.688,2.688c0-25.391,0-50.757,0-76.154   c-0.897,0.898-1.79,1.791-2.688,2.688c21.502,0,43.003,0,64.504,0c-0.897-0.897-1.79-1.79-2.688-2.688c0,25.386,0,50.763,0,76.154   c0,3.469,5.375,3.469,5.375,0c0-25.391,0-50.757,0-76.154c0-1.467-1.221-2.687-2.688-2.687c-21.501,0-43.002,0-64.504,0   c-1.467,0-2.688,1.22-2.688,2.687c0,25.386,0,50.763,0,76.154c0,1.464,1.221,2.688,2.688,2.688c21.502,0,43.003,0,64.504,0   C98.203,212.379,98.203,207.003,94.736,207.003z" fill="#006d77" data-original="#000000" style="" class=""/>
	<path d="M62.483,95.696c-10.75,0-21.501,0-32.252,0c0.898,0.897,1.79,1.79,2.688,2.688c0-6.197,0-12.396,0-18.599   c-0.897,0.897-1.79,1.79-2.688,2.688c10.751,0,21.502,0,32.252,0c-0.897-0.897-1.789-1.791-2.688-2.688c0,6.196,0,12.396,0,18.599   c0,3.467,5.375,3.467,5.375,0c0-6.197,0-12.396,0-18.599c0-1.468-1.221-2.688-2.688-2.688c-10.75,0-21.501,0-32.252,0   c-1.467,0-2.688,1.22-2.688,2.688c0,6.196,0,12.396,0,18.599c0,1.467,1.221,2.687,2.688,2.687c10.751,0,21.502,0,32.252,0   C65.952,101.07,65.952,95.696,62.483,95.696z" fill="#006d77" data-original="#000000" style="" class=""/>
	<path d="M286.906,95.696c-33.145,0-66.289,0-99.434,0c-11.597,0-23.197,0-34.802,0c0.898,0.897,1.791,1.79,2.688,2.688   c0-6.197,0-12.396,0-18.599c-0.896,0.897-1.789,1.79-2.688,2.688c33.148,0,66.293,0,99.438,0c11.601,0,23.197,0,34.804,0   c-0.898-0.897-1.79-1.791-2.688-2.688c0,6.196,0,12.396,0,18.599c0,3.467,5.375,3.467,5.375,0c0-6.197,0-12.396,0-18.599   c0-1.468-1.218-2.688-2.688-2.688c-33.145,0-66.289,0-99.434,0c-11.603,0-23.203,0-34.802,0c-1.467,0-2.688,1.22-2.688,2.688   c0,6.196,0,12.396,0,18.599c0,1.467,1.221,2.687,2.688,2.687c33.143,0,66.287,0,99.432,0c11.601,0,23.203,0,34.809,0   C290.376,101.07,290.376,95.696,286.906,95.696z" fill="#006d77" data-original="#000000" style="" class=""/>
	<path d="M7.386,112.934c21.964,0,43.922,0,65.885,0c43.127,0,86.259,0,129.381,0c30.147,0,60.306,0,90.453,0   c1.522,0,3.03,0,4.553,0c5.196,0,5.196-8.062,0-8.062c-21.965,0-43.922,0-65.887,0c-43.119,0-86.255,0-129.381,0   c-30.155,0-60.306,0-90.461,0c-1.517,0-3.026,0-4.543,0C2.189,104.872,2.189,112.934,7.386,112.934z" fill="#006d77" data-original="#000000" style="" class=""/>
	<path d="M152.521,143.843c33.508,0,67.029,0,100.537,0c4.404,0,8.835,0,13.239,0c3.47,0,3.47-5.375,0-5.375   c-33.508,0-67.029,0-100.537,0c-4.404,0-8.835,0-13.239,0C149.055,138.468,149.055,143.843,152.521,143.843z" fill="#006d77" data-original="#000000" style="" class=""/>
	<path d="M152.521,176.095c33.508,0,67.029,0,100.537,0c4.404,0,8.835,0,13.239,0c3.47,0,3.47-5.376,0-5.376   c-33.508,0-67.029,0-100.537,0c-4.404,0-8.835,0-13.239,0C149.055,170.719,149.055,176.095,152.521,176.095z" fill="#006d77" data-original="#000000" style="" class=""/>
	<path d="M152.521,202.973c33.508,0,67.029,0,100.537,0c4.404,0,8.835,0,13.239,0c3.47,0,3.47-5.376,0-5.376   c-33.508,0-67.029,0-100.537,0c-4.404,0-8.835,0-13.239,0C149.055,197.597,149.055,202.973,152.521,202.973z" fill="#006d77" data-original="#000000" style="" class=""/>
</g>
<g xmlns="http://www.w3.org/2000/svg">
</g>
<g xmlns="http://www.w3.org/2000/svg">
</g>
<g xmlns="http://www.w3.org/2000/svg">
</g>
<g xmlns="http://www.w3.org/2000/svg">
</g>
<g xmlns="http://www.w3.org/2000/svg">
</g>
<g xmlns="http://www.w3.org/2000/svg">
</g>
<g xmlns="http://www.w3.org/2000/svg">
</g>
<g xmlns="http://www.w3.org/2000/svg">
</g>
<g xmlns="http://www.w3.org/2000/svg">
</g>
<g xmlns="http://www.w3.org/2000/svg">
</g>
<g xmlns="http://www.w3.org/2000/svg">
</g>
<g xmlns="http://www.w3.org/2000/svg">
</g>
<g xmlns="http://www.w3.org/2000/svg">
</g>
<g xmlns="http://www.w3.org/2000/svg">
</g>
<g xmlns="http://www.w3.org/2000/svg">
</g>
</g></svg>
