<svg width="512.001" height="512.001" xmlns="http://www.w3.org/2000/svg">

 <g>
  <title>background</title>
  <rect fill="none" id="canvas_background" height="602" width="802" y="-1" x="-1"/>
 </g>
 <g>
  <title>Layer 1</title>
  <g id="svg_1">
   <g id="svg_2">
    <path fill="#006d77" id="svg_3" d="m341.954,328.358c-12.131,0 -22,-8.542 -22,-19.041c0,-10.5 9.869,-19.042 22,-19.042c12.131,0 22,8.542 22,19.042c0,5.522 4.478,10 10,10c5.522,0 10,-4.478 10,-10c0,-18.325 -13.654,-33.733 -32,-37.915l0,-5.201c0,-5.522 -4.478,-10 -10,-10c-5.522,0 -10,4.478 -10,10l0,5.201c-18.346,4.182 -32,19.59 -32,37.915c0,21.527 18.841,39.041 42,39.041c12.131,0 22,8.542 22,19.042s-9.869,19.042 -22,19.042c-12.131,0 -22,-8.542 -22,-19.042c0,-5.522 -4.478,-10 -10,-10c-5.522,0 -10,4.478 -10,10c0,18.325 13.654,33.733 32,37.915l0,4.32c0,5.522 4.478,10 10,10c5.522,0 10,-4.478 10,-10l0,-4.32c18.346,-4.182 32,-19.59 32,-37.915c0,-21.528 -18.841,-39.042 -42,-39.042z"/>
   </g>
  </g>
  <g id="svg_4">
   <g id="svg_5">
    <path fill="#006d77" id="svg_6" d="m451.482,268.876c-13.063,-20.355 -31.467,-36.643 -53.222,-47.101c-4.979,-2.394 -10.954,-0.298 -13.346,4.68c-2.393,4.978 -0.298,10.952 4.68,13.345c37.911,18.224 62.406,57.163 62.406,99.201c0,17.988 -4.434,35.827 -12.821,51.591c-2.594,4.875 -0.745,10.931 4.131,13.525c1.496,0.796 3.104,1.174 4.688,1.174c3.578,0 7.039,-1.926 8.837,-5.305c9.921,-18.644 15.165,-39.733 15.165,-60.985c0,-24.96 -7.095,-49.209 -20.518,-70.125z"/>
   </g>
  </g>
  <g id="svg_7">
   <g id="svg_8">
    <path fill="#006d77" id="svg_9" d="m357.673,209.002l-0.673,-0.001c-5.522,0 -10,4.477 -10,10c0,5.523 4.478,10 10,10l0.579,0.001c0.016,0 0.031,0 0.048,0c5.501,0 9.973,-4.446 9.999,-9.953c0.025,-5.523 -4.431,-10.021 -9.953,-10.047z"/>
   </g>
  </g>
  <g id="svg_10">
   <g id="svg_11">
    <path fill="#006d77" id="svg_12" d="m294.407,438.202c-37.91,-18.225 -62.405,-57.164 -62.405,-99.201c0,-17.988 4.434,-35.827 12.821,-51.591c2.594,-4.875 0.745,-10.931 -4.131,-13.525c-4.874,-2.594 -10.932,-0.745 -13.525,4.131c-9.921,18.645 -15.165,39.733 -15.165,60.985c0,24.96 7.095,49.208 20.518,70.125c13.063,20.355 31.467,36.643 53.222,47.102c1.397,0.672 2.873,0.989 4.326,0.989c3.724,0 7.298,-2.089 9.02,-5.669c2.391,-4.978 0.297,-10.953 -4.681,-13.346z"/>
   </g>
  </g>
  <g id="svg_13">
   <g id="svg_14">
    <path fill="#006d77" id="svg_15" d="m327.002,449.001l-0.579,-0.002c-5.548,-0.01 -10.02,4.429 -10.045,9.953c-0.026,5.523 4.432,10.021 9.954,10.047l0.67,0.002c5.522,0 10,-4.478 10,-10c0,-5.522 -4.478,-10 -10,-10z"/>
   </g>
  </g>
  <g id="svg_16">
   <g id="svg_17">
    <path fill="#006d77" id="svg_18" d="m387.409,175.168c-1.217,-2.9 -2.708,-5.633 -4.443,-8.168l26.034,0c25.364,0 46,-20.636 46,-46s-20.636,-46 -46,-46l-80.08,0c5.091,-7.402 8.08,-16.357 8.08,-26c0,-25.364 -20.636,-46 -46,-46l-245,0c-25.364,0 -46,20.636 -46,46s20.636,46 46,46l80.08,0c-5.091,7.402 -8.08,16.357 -8.08,26s2.988,18.598 8.08,26l-26.08,0c-25.364,0 -46,20.636 -46,46c0,14.567 6.814,27.566 17.415,36c-10.601,8.434 -17.415,21.433 -17.415,36s6.814,27.566 17.415,36c-10.601,8.434 -17.415,21.433 -17.415,36c0,14.567 6.814,27.566 17.415,36c-10.601,8.434 -17.415,21.433 -17.415,36c0,25.364 20.636,46 46,46l117.85,0c31.046,33.207 75.212,54.001 124.151,54.001c93.738,0 170,-76.262 170,-170c0,-78.017 -52.83,-143.918 -124.592,-163.833zm21.591,-80.168c14.337,0 26,11.664 26,26s-11.663,26 -26,26l-64,0l-181,0c-14.337,0 -26,-11.664 -26,-26s11.663,-26 26,-26l245,0zm-363,-20c-14.337,0 -26,-11.664 -26,-26s11.663,-26 26,-26l245,0c14.337,0 26,11.664 26,26s-11.663,26 -26,26l-245,0zm54,92l245,0c4.028,0 7.885,0.936 11.345,2.612c-4.73,-0.397 -9.512,-0.611 -14.344,-0.611c-46.945,0 -89.505,19.129 -120.299,49.999l-121.702,0c-14.336,0 -26,-11.664 -26,-26s11.664,-26 26,-26zm0,72l104.615,0c-11.352,15.553 -20.129,33.095 -25.703,52l-78.912,0c-14.337,0 -26,-11.663 -26,-26c0,-14.336 11.663,-26 26,-26zm0,72l74.32,0c-1.517,9.113 -2.319,18.464 -2.319,28.001c0,8.146 0.589,16.156 1.702,23.999l-73.703,0c-14.337,0 -26,-11.663 -26,-26c0,-14.337 11.663,-26 26,-26zm0,124c-14.337,0 -26,-11.663 -26,-26c0,-14.337 11.663,-26 26,-26l77.786,0c5.046,18.813 13.243,36.346 23.993,52l-101.779,0zm242.001,54.001c-82.71,0 -150,-67.29 -150,-150s67.29,-150 150,-150s150,67.29 150,150s-67.29,150 -150,150z"/>
   </g>
  </g>
  <g id="svg_19"/>
  <g id="svg_20"/>
  <g id="svg_21"/>
  <g id="svg_22"/>
  <g id="svg_23"/>
  <g id="svg_24"/>
  <g id="svg_25"/>
  <g id="svg_26"/>
  <g id="svg_27"/>
  <g id="svg_28"/>
  <g id="svg_29"/>
  <g id="svg_30"/>
  <g id="svg_31"/>
  <g id="svg_32"/>
  <g id="svg_33"/>
 </g>
</svg>